<svg xmlns="http://www.w3.org/2000/svg" viewBox="0 0 1440 320"><path fill="#00cba7" fill-opacity="1" d="M0,64L17.1,74.7C34.3,85,69,107,103,122.7C137.1,139,171,149,206,154.7C240,160,274,160,309,138.7C342.9,117,377,75,411,48C445.7,21,480,11,514,21.3C548.6,32,583,64,617,96C651.4,128,686,160,720,170.7C754.3,181,789,171,823,181.3C857.1,192,891,224,926,234.7C960,245,994,235,1029,208C1062.9,181,1097,139,1131,101.3C1165.7,64,1200,32,1234,32C1268.6,32,1303,64,1337,96C1371.4,128,1406,160,1423,176L1440,192L1440,320L1422.9,320C1405.7,320,1371,320,1337,320C1302.9,320,1269,320,1234,320C1200,320,1166,320,1131,320C1097.1,320,1063,320,1029,320C994.3,320,960,320,926,320C891.4,320,857,320,823,320C788.6,320,754,320,720,320C685.7,320,651,320,617,320C582.9,320,549,320,514,320C480,320,446,320,411,320C377.1,320,343,320,309,320C274.3,320,240,320,206,320C171.4,320,137,320,103,320C68.6,320,34,320,17,320L0,320Z"></path></svg>